HIERARCHY
ROOT pelvis
{
  OFFSET 0 100 0
  CHANNELS 6 Xposition Yposition Zposition Zrotation Xrotation Yrotation
  JOINT pelvis_right_femur
  {
    OFFSET -10.78128 -3.44521 -0.5502486
    CHANNELS 3 Zrotation Xrotation Yrotation
    JOINT right_femur_tibia
    {
      OFFSET -0.8047443 -44.0398 -0.1307829
      CHANNELS 3 Zrotation Xrotation Yrotation
      JOINT right_tibia_foot
      {
        OFFSET 3.006224 -47.83518 -5
        CHANNELS 3 Zrotation Xrotation Yrotation
        End Site
        {
          OFFSET 0 -5 15
        }
      }
    }
  }
  JOINT pelvis_left_femur
  {
    OFFSET 10.78128 -3.44521 -0.5502486
    CHANNELS 3 Zrotation Xrotation Yrotation
    JOINT left_femur_tibia
    {
      OFFSET 0.8047443 -44.0398 -0.1307829
      CHANNELS 3 Zrotation Xrotation Yrotation
      JOINT left_tibia_foot
      {
        OFFSET -4.370144 -48.10324 -4.275266
        CHANNELS 3 Zrotation Xrotation Yrotation
        End Site
        {
          OFFSET 0 -5 15
        }
      }
    }
  }
  JOINT pelvis_spine1
  {
    OFFSET 0 6.468898 -3.129235
    CHANNELS 3 Zrotation Xrotation Yrotation
    JOINT spine1
    {
      OFFSET 0 23.15396 4.99043
      CHANNELS 3 Zrotation Xrotation Yrotation
      JOINT spine2
      {
        OFFSET 0 20.79997 -5.064912
        CHANNELS 3 Zrotation Xrotation Yrotation
        JOINT neck
        {
          OFFSET 0 14.38658 9.616178
          CHANNELS 3 Zrotation Xrotation Yrotation
          End Site
          {
            OFFSET 0 20 0
          }
        }
      }
      JOINT right_manubrium
      {
        OFFSET -5.722621 16.35077 3.967754
        CHANNELS 3 Zrotation Xrotation Yrotation
        JOINT right_clavicle
        {
          OFFSET -13.16364 1.694482 -4.693211
          CHANNELS 3 Zrotation Xrotation Yrotation
          JOINT right_humerus
          {
            OFFSET -28.5034 -0.3100689 -2.792744
            CHANNELS 3 Zrotation Xrotation Yrotation
            JOINT right_radius
            {
              OFFSET -25.15693 0.02248979 -1.271978
              CHANNELS 3 Zrotation Xrotation Yrotation
              End Site
              {
                OFFSET -15 0 0
              }
            }
          }
        }
      }
      JOINT left_manubrium
      {
        OFFSET 5.722621 16.35077 3.967754
        CHANNELS 3 Zrotation Xrotation Yrotation
        JOINT left_clavicle
        {
          OFFSET 13.16364 1.694482 -4.693211
          CHANNELS 3 Zrotation Xrotation Yrotation
          JOINT left_humerus
          {
            OFFSET 29.39168 -1.063119 -2.237045
            CHANNELS 3 Zrotation Xrotation Yrotation
            JOINT left_radius
            {
              OFFSET 24.59957 -0.9528479 0.9047498
              CHANNELS 3 Zrotation Xrotation Yrotation
              End Site
              {
                OFFSET 15 -0 -0
              }
            }
          }
        }
      }
    }
  }
}
MOTION
Frames: 19
Frame Time: 0.0416666666667
-717.6891 124.6142 -318.8501 11.51488 2.181705 94.06545 4.19519 5.752448 -2.897175 -0 13.62963 -0 -10.79905 -1.558906 -0.06430255 -0.01389837 -8.641241 -7.265418 -0 18.90714 -0 1.239582 -8.605516 14.51322 0.6796372 -2.266054 5.975963 -2.765204 16.0787 -4.179527 3.031307 20.23551 1.115132 1.257073 -16.00932 3.834054 -2.644164 -27.65117 11.85209 91.1433 18.21019 -9.35866 -0 0 24.15863 -29.4405 18.13912 19.33383 3.669841 -21.38477 -8.651066 -86.44759 13.38154 24.4259 0 0 -24.5822 2.588864 16.4525 8.184416
-711.7503 124.5719 -320.1273 11.53578 2.066768 93.50141 4.19519 5.752448 -2.897175 -0 13.62963 -0 -10.79905 -1.558906 -0.06430255 -0.01389837 -8.641241 -7.265418 -0 18.90714 -0 1.239582 -8.605516 14.51322 0.6796372 -2.266054 5.975963 -2.765204 16.0787 -4.179527 3.031307 20.23551 1.115132 1.257073 -16.00932 3.834054 -2.644164 -27.65117 11.85209 91.1433 18.21019 -9.35866 -0 0 24.15863 -29.4405 18.13912 19.33383 3.669841 -21.38477 -8.651066 -86.44759 13.38154 24.4259 0 0 -24.5822 2.588864 16.4525 8.184416
-705.799 124.5296 -321.3449 11.55556 1.951632 92.93745 4.19519 5.752448 -2.897175 -0 13.62963 -0 -10.79905 -1.558906 -0.06430255 -0.01389837 -8.641241 -7.265418 -0 18.90714 -0 1.239582 -8.605516 14.51322 0.6796372 -2.266054 5.975963 -2.765204 16.0787 -4.179527 3.031307 20.23551 1.115132 1.257073 -16.00932 3.834054 -2.644164 -27.65117 11.85209 91.1433 18.21019 -9.35866 -0 0 24.15863 -29.4405 18.13912 19.33383 3.669841 -21.38477 -8.651066 -86.44759 13.38154 24.4259 0 0 -24.5822 2.588864 16.4525 8.184416
-699.8357 124.4873 -322.5026 11.57419 1.836306 92.37357 4.19519 5.752448 -2.897175 -0 13.62963 -0 -10.79905 -1.558906 -0.06430255 -0.01389837 -8.641241 -7.265418 -0 18.90714 -0 1.239582 -8.605516 14.51322 0.6796372 -2.266054 5.975963 -2.765204 16.0787 -4.179527 3.031307 20.23551 1.115132 1.257073 -16.00932 3.834054 -2.644164 -27.65117 11.85209 91.1433 18.21019 -9.35866 -0 0 24.15863 -29.4405 18.13912 19.33383 3.669841 -21.38477 -8.651066 -86.44759 13.38154 24.4259 0 0 -24.5822 2.588864 16.4525 8.184416
-693.8612 124.445 -323.6004 11.59169 1.720802 91.80976 4.19519 5.752448 -2.897175 -0 13.62963 -0 -10.79905 -1.558906 -0.06430255 -0.01389837 -8.641241 -7.265418 -0 18.90714 -0 1.239582 -8.605516 14.51322 0.6796372 -2.266054 5.975963 -2.765204 16.0787 -4.179527 3.031307 20.23551 1.115132 1.257073 -16.00932 3.834054 -2.644164 -27.65117 11.85209 91.1433 18.21019 -9.35866 -0 0 24.15863 -29.4405 18.13912 19.33383 3.669841 -21.38477 -8.651066 -86.44759 13.38154 24.4259 0 0 -24.5822 2.588864 16.4525 8.184416
-687.8759 124.4027 -324.6382 11.60805 1.605132 91.24602 4.19519 5.752448 -2.897175 -0 13.62963 -0 -10.79905 -1.558906 -0.06430255 -0.01389837 -8.641241 -7.265418 -0 18.90714 -0 1.239582 -8.605516 14.51322 0.6796372 -2.266054 5.975963 -2.765204 16.0787 -4.179527 3.031307 20.23551 1.115132 1.257073 -16.00932 3.834054 -2.644164 -27.65117 11.85209 91.1433 18.21019 -9.35866 -0 0 24.15863 -29.4405 18.13912 19.33383 3.669841 -21.38477 -8.651066 -86.44759 13.38154 24.4259 0 0 -24.5822 2.588864 16.4525 8.184416
-681.8805 124.3604 -325.6158 11.62327 1.489307 90.68235 4.19519 5.752448 -2.897175 -0 13.62963 -0 -10.79905 -1.558906 -0.06430255 -0.01389837 -8.641241 -7.265418 -0 18.90714 -0 1.239582 -8.605516 14.51322 0.6796372 -2.266054 5.975963 -2.765204 16.0787 -4.179527 3.031307 20.23551 1.115132 1.257073 -16.00932 3.834054 -2.644164 -27.65117 11.85209 91.1433 18.21019 -9.35866 -0 0 24.15863 -29.4405 18.13912 19.33383 3.669841 -21.38477 -8.651066 -86.44759 13.38154 24.4259 0 0 -24.5822 2.588864 16.4525 8.184416
-675.8756 124.3181 -326.5332 11.63735 1.373338 90.11873 4.19519 5.752448 -2.897175 -0 13.62963 -0 -10.79905 -1.558906 -0.06430255 -0.01389837 -8.641241 -7.265418 -0 18.90714 -0 1.239582 -8.605516 14.51322 0.6796372 -2.266054 5.975963 -2.765204 16.0787 -4.179527 3.031307 20.23551 1.115132 1.257073 -16.00932 3.834054 -2.644164 -27.65117 11.85209 91.1433 18.21019 -9.35866 -0 0 24.15863 -29.4405 18.13912 19.33383 3.669841 -21.38477 -8.651066 -86.44759 13.38154 24.4259 0 0 -24.5822 2.588864 16.4525 8.184416
-669.8618 124.2758 -327.3902 11.65029 1.257236 89.55517 4.19519 5.752448 -2.897175 -0 13.62963 -0 -10.79905 -1.558906 -0.06430255 -0.01389837 -8.641241 -7.265418 -0 18.90714 -0 1.239582 -8.605516 14.51322 0.6796372 -2.266054 5.975963 -2.765204 16.0787 -4.179527 3.031307 20.23551 1.115132 1.257073 -16.00932 3.834054 -2.644164 -27.65117 11.85209 91.1433 18.21019 -9.35866 -0 0 24.15863 -29.4405 18.13912 19.33383 3.669841 -21.38477 -8.651066 -86.44759 13.38154 24.4259 0 0 -24.5822 2.588864 16.4525 8.184416
-663.8397 124.2336 -328.1868 11.66208 1.141012 88.99166 4.19519 5.752448 -2.897175 -0 13.62963 -0 -10.79905 -1.558906 -0.06430255 -0.01389837 -8.641241 -7.265418 -0 18.90714 -0 1.239582 -8.605516 14.51322 0.6796372 -2.266054 5.975963 -2.765204 16.0787 -4.179527 3.031307 20.23551 1.115132 1.257073 -16.00932 3.834054 -2.644164 -27.65117 11.85209 91.1433 18.21019 -9.35866 -0 0 24.15863 -29.4405 18.13912 19.33383 3.669841 -21.38477 -8.651066 -86.44759 13.38154 24.4259 0 0 -24.5822 2.588864 16.4525 8.184416
-657.8098 124.1913 -328.9229 11.67273 1.024678 88.42819 4.19519 5.752448 -2.897175 -0 13.62963 -0 -10.79905 -1.558906 -0.06430255 -0.01389837 -8.641241 -7.265418 -0 18.90714 -0 1.239582 -8.605516 14.51322 0.6796372 -2.266054 5.975963 -2.765204 16.0787 -4.179527 3.031307 20.23551 1.115132 1.257073 -16.00932 3.834054 -2.644164 -27.65117 11.85209 91.1433 18.21019 -9.35866 -0 0 24.15863 -29.4405 18.13912 19.33383 3.669841 -21.38477 -8.651066 -86.44759 13.38154 24.4259 0 0 -24.5822 2.588864 16.4525 8.184416
-651.7729 124.149 -329.5985 11.68223 0.9082449 87.86477 4.19519 5.752448 -2.897175 -0 13.62963 -0 -10.79905 -1.558906 -0.06430255 -0.01389837 -8.641241 -7.265418 -0 18.90714 -0 1.239582 -8.605516 14.51322 0.6796372 -2.266054 5.975963 -2.765204 16.0787 -4.179527 3.031307 20.23551 1.115132 1.257073 -16.00932 3.834054 -2.644164 -27.65117 11.85209 91.1433 18.21019 -9.35866 -0 0 24.15863 -29.4405 18.13912 19.33383 3.669841 -21.38477 -8.651066 -86.44759 13.38154 24.4259 0 0 -24.5822 2.588864 16.4525 8.184416
-645.7296 124.1067 -330.2134 11.69059 0.791724 87.30138 4.19519 5.752448 -2.897175 -0 13.62963 -0 -10.79905 -1.558906 -0.06430255 -0.01389837 -8.641241 -7.265418 -0 18.90714 -0 1.239582 -8.605516 14.51322 0.6796372 -2.266054 5.975963 -2.765204 16.0787 -4.179527 3.031307 20.23551 1.115132 1.257073 -16.00932 3.834054 -2.644164 -27.65117 11.85209 91.1433 18.21019 -9.35866 -0 0 24.15863 -29.4405 18.13912 19.33383 3.669841 -21.38477 -8.651066 -86.44759 13.38154 24.4259 0 0 -24.5822 2.588864 16.4525 8.184416
-639.6803 124.0644 -330.7675 11.6978 0.6751265 86.73802 4.19519 5.752448 -2.897175 -0 13.62963 -0 -10.79905 -1.558906 -0.06430255 -0.01389837 -8.641241 -7.265418 -0 18.90714 -0 1.239582 -8.605516 14.51322 0.6796372 -2.266054 5.975963 -2.765204 16.0787 -4.179527 3.031307 20.23551 1.115132 1.257073 -16.00932 3.834054 -2.644164 -27.65117 11.85209 91.1433 18.21019 -9.35866 -0 0 24.15863 -29.4405 18.13912 19.33383 3.669841 -21.38477 -8.651066 -86.44759 13.38154 24.4259 0 0 -24.5822 2.588864 16.4525 8.184416
-633.6258 124.0221 -331.261 11.70386 0.5584638 86.17469 4.19519 5.752448 -2.897175 -0 13.62963 -0 -10.79905 -1.558906 -0.06430255 -0.01389837 -8.641241 -7.265418 -0 18.90714 -0 1.239582 -8.605516 14.51322 0.6796372 -2.266054 5.975963 -2.765204 16.0787 -4.179527 3.031307 20.23551 1.115132 1.257073 -16.00932 3.834054 -2.644164 -27.65117 11.85209 91.1433 18.21019 -9.35866 -0 0 24.15863 -29.4405 18.13912 19.33383 3.669841 -21.38477 -8.651066 -86.44759 13.38154 24.4259 0 0 -24.5822 2.588864 16.4525 8.184416
-627.5667 123.9798 -331.6936 11.70878 0.4417471 85.61138 4.19519 5.752448 -2.897175 -0 13.62963 -0 -10.79905 -1.558906 -0.06430255 -0.01389837 -8.641241 -7.265418 -0 18.90714 -0 1.239582 -8.605516 14.51322 0.6796372 -2.266054 5.975963 -2.765204 16.0787 -4.179527 3.031307 20.23551 1.115132 1.257073 -16.00932 3.834054 -2.644164 -27.65117 11.85209 91.1433 18.21019 -9.35866 -0 0 24.15863 -29.4405 18.13912 19.33383 3.669841 -21.38477 -8.651066 -86.44759 13.38154 24.4259 0 0 -24.5822 2.588864 16.4525 8.184416
-621.5035 123.9375 -332.0654 11.71255 0.3249877 85.04809 4.19519 5.752448 -2.897175 -0 13.62963 -0 -10.79905 -1.558906 -0.06430255 -0.01389837 -8.641241 -7.265418 -0 18.90714 -0 1.239582 -8.605516 14.51322 0.6796372 -2.266054 5.975963 -2.765204 16.0787 -4.179527 3.031307 20.23551 1.115132 1.257073 -16.00932 3.834054 -2.644164 -27.65117 11.85209 91.1433 18.21019 -9.35866 -0 0 24.15863 -29.4405 18.13912 19.33383 3.669841 -21.38477 -8.651066 -86.44759 13.38154 24.4259 0 0 -24.5822 2.588864 16.4525 8.184416
-615.4369 123.8952 -332.3762 11.71517 0.2081969 84.48482 4.19519 5.752448 -2.897175 -0 13.62963 -0 -10.79905 -1.558906 -0.06430255 -0.01389837 -8.641241 -7.265418 -0 18.90714 -0 1.239582 -8.605516 14.51322 0.6796372 -2.266054 5.975963 -2.765204 16.0787 -4.179527 3.031307 20.23551 1.115132 1.257073 -16.00932 3.834054 -2.644164 -27.65117 11.85209 91.1433 18.21019 -9.35866 -0 0 24.15863 -29.4405 18.13912 19.33383 3.669841 -21.38477 -8.651066 -86.44759 13.38154 24.4259 0 0 -24.5822 2.588864 16.4525 8.184416
-609.3674 123.8529 -332.6262 11.71664 0.09138596 83.92155 4.19519 5.752448 -2.897175 -0 13.62963 -0 -10.79905 -1.558906 -0.06430255 -0.01389837 -8.641241 -7.265418 -0 18.90714 -0 1.239582 -8.605516 14.51322 0.6796372 -2.266054 5.975963 -2.765204 16.0787 -4.179527 3.031307 20.23551 1.115132 1.257073 -16.00932 3.834054 -2.644164 -27.65117 11.85209 91.1433 18.21019 -9.35866 -0 0 24.15863 -29.4405 18.13912 19.33383 3.669841 -21.38477 -8.651066 -86.44759 13.38154 24.4259 0 0 -24.5822 2.588864 16.4525 8.184416
